<?xml version="1.0" encoding="UTF-8"?>
<svg id="Layer_2" data-name="Layer 2" xmlns="http://www.w3.org/2000/svg" xmlns:xlink="http://www.w3.org/1999/xlink" viewBox="0 0 80.38 40.76">
  <defs>
    <style>
      .cls-1 {
        fill: url(#New_Gradient_Swatch);
      }

      .cls-2 {
        font-family: Impact, Impact;
        font-size: 33.25px;
      }

      .cls-3 {
        letter-spacing: .02em;
      }
    </style>
    <linearGradient id="New_Gradient_Swatch" data-name="New Gradient Swatch" x1="40.81" y1="32.78" x2="40.81" y2="3.48" gradientUnits="userSpaceOnUse">
      <stop offset="0" stop-color="#ffd87f"/>
      <stop offset=".13" stop-color="#ffd077"/>
      <stop offset=".32" stop-color="#ffba62"/>
      <stop offset=".53" stop-color="#ff9942"/>
    </linearGradient>
  </defs>
  <g id="Layer_2-2" data-name="Layer 2">
    <g>
      <text class="cls-2" transform="translate(0 29.77) scale(.92 1)"><tspan x="0" y="0">Bodi</tspan><tspan class="cls-3" x="61.74" y="0">f</tspan><tspan x="72.18" y="0">y</tspan></text>
      <g>
        <path class="cls-1" d="m1.26,3.48h6.29c1.99,0,3.49.17,4.52.5,1.02.34,1.85,1.01,2.48,2.04.63,1.02.94,2.67.94,4.94,0,1.54-.22,2.61-.67,3.21-.45.61-1.32,1.07-2.63,1.4,1.46.36,2.45.95,2.97,1.78s.78,2.1.78,3.81v2.44c0,1.78-.19,3.09-.56,3.95-.37.86-.97,1.44-1.79,1.75-.82.31-2.5.47-5.04.47H1.26V3.48Zm6.31,4.5v5.84c.27-.01.48-.02.63-.02.62,0,1.01-.17,1.18-.5s.25-1.27.25-2.83c0-.82-.07-1.4-.21-1.73s-.32-.54-.55-.62c-.22-.09-.66-.14-1.31-.15Zm0,9.94v7.35c.89-.03,1.46-.18,1.7-.45s.37-.94.37-2v-2.45c0-1.13-.11-1.81-.33-2.05s-.8-.37-1.74-.41Z"/>
        <path class="cls-1" d="m31.72,15.79v5.28c0,1.94-.09,3.36-.27,4.26s-.56,1.75-1.15,2.53c-.59.79-1.35,1.36-2.27,1.74-.92.37-1.99.56-3.18.56-1.34,0-2.47-.16-3.4-.48-.93-.32-1.65-.8-2.17-1.44-.51-.64-.88-1.42-1.1-2.34s-.33-2.29-.33-4.12v-5.52c0-2,.2-3.57.6-4.69s1.12-2.03,2.16-2.71c1.04-.68,2.37-1.02,3.99-1.02,1.36,0,2.53.22,3.5.66.97.44,1.73,1.01,2.25,1.71.53.7.89,1.43,1.09,2.18.19.75.29,1.88.29,3.41Zm-6.05-1.62c0-1.1-.05-1.8-.17-2.09-.11-.29-.34-.43-.7-.43s-.6.14-.72.43c-.12.29-.18.98-.18,2.09v9.72c0,1.02.06,1.68.18,1.99.12.31.35.46.7.46s.6-.14.71-.42c.11-.28.17-.89.17-1.82v-9.94Z"/>
        <path class="cls-1" d="m47.49,3.48v26.28h-6.05v-1.56c-.58.65-1.19,1.14-1.83,1.46-.64.33-1.31.49-2.01.49-.94,0-1.75-.27-2.44-.8s-1.13-1.16-1.33-1.86c-.2-.7-.29-1.85-.29-3.44v-10.08c0-1.66.1-2.83.29-3.52.19-.69.64-1.3,1.34-1.83s1.53-.79,2.5-.79c.75,0,1.44.15,2.06.44s1.19.73,1.7,1.32V3.48h6.05Zm-6.05,10.16c0-.79-.06-1.32-.19-1.59-.12-.27-.37-.41-.74-.41s-.6.12-.73.37c-.12.24-.19.79-.19,1.63v10.55c0,.88.06,1.45.18,1.73.12.28.35.41.69.41.39,0,.65-.15.78-.46.13-.31.2-1.06.2-2.26v-9.97Z"/>
        <path class="cls-1" d="m55.89,3.48v3.43h-6.23v-3.43h6.23Zm0,4.74v21.54h-6.23V8.22h6.23Z"/>
        <path class="cls-1" d="m65.78,3.48v3.33c-1.25,0-1.99.06-2.21.19-.23.12-.34.48-.34,1.06v.68h2.55v3.41h-1.44v17.61h-6.05V12.15h-1.24v-3.41h1.24c0-1.42.04-2.36.13-2.84s.31-.9.67-1.27c.35-.37.85-.66,1.49-.85.64-.19,1.63-.29,2.98-.29h2.22Z"/>
        <path class="cls-1" d="m80.37,8.22l-1.73,15.58c-.27,2.47-.5,4.15-.69,5.05-.18.9-.49,1.64-.92,2.22-.43.58-1.03,1.01-1.79,1.29-.76.28-1.98.41-3.66.41h-3.67v-3.44c.94,0,1.55-.05,1.82-.15.27-.1.41-.33.41-.69,0-.17-.12-.93-.38-2.26l-3.31-18.02h5.5l1.99,14.55.97-14.55h5.48Z"/>
      </g>
    </g>
  </g>
</svg>